# xmcd
#
# Track frame offsets: 
#        150
#        17495
#        34882
#        46975
#        71822
#        92140
#        104582
#        120055
#        137030
#        151797
#        165437
#        177697
#        188302
#        200927
#        213597
#        232725
#        246460
#        260190
#
# Disc length: 3659 seconds
#
# Revision: 2
# Processed by: cddbd v1.5.1PL0 Copyright (c) Steve Scherf et al.
# Submitted via: ExactAudioCopy v0.95b3
#
DISCID=fc0e4912
DTITLE=Various Artist - The Story Of The Blues [CD3]
DYEAR=1993
DGENRE=Blues
TTITLE0=Muddy Waters - Feel Like Going Home
TTITLE1=Howlin' Wolf - The Red Rooster
TTITLE2=John Lee Hooker - Don't Turn Me From Your Door
TTITLE3=B.B. King - The Thrill Is Gone
TTITLE4=Lightnin' Hopkins - Woke Up This Morning
TTITLE5=Elmore James - Standing At The Crossroads
TTITLE6=Big Bill Broonzy - Big Bill Blues
TTITLE7=Big Joe Turner - Roll'em Pete
TTITLE8=Bessie Smith - Jail House Blues
TTITLE9=T-Bone Walker - Call It Stormy Monday
TTITLE10=Little Walter - Last Night
TTITLE11=Jimmy Reed - Baby What You Want Me To Do
TTITLE12=Memphis Slim - Sassy Mae
TTITLE13=Roosevelt Sykes - Security Blues
TTITLE14=Buddy Guy - First Time I Met The Blues
TTITLE15=Lonnie Johnson - Tomorrow Night
TTITLE16=J.B. Lenoir - Alabama Blues
TTITLE17=Sonny Boy Williamson II - Help Me
EXTD=
EXTT0=
EXTT1=
EXTT2=
EXTT3=
EXTT4=
EXTT5=
EXTT6=
EXTT7=
EXTT8=
EXTT9=
EXTT10=
EXTT11=
EXTT12=
EXTT13=
EXTT14=
EXTT15=
EXTT16=
EXTT17=
PLAYORDER=
